# xmcd
#
# Track frame offsets:
#	150
#	16907
#	33173
#	56132
#	75220
#	98531
#	130265
#
# Disc length: 2029 seconds
#
# Revision: 0
# Processed by: cddbd v1.5.2PL0 Copyright (c) Steve Scherf et al.
# Submitted via: EZCDAudioConverter 4.0.2.1
#
DISCID=4407eb07
DTITLE=Michael Wicoff - Come to my World
DYEAR=1980
DGENRE=Soul
TTITLE0=Feel my love
TTITLE1=Someone standing by
TTITLE2=One alone
TTITLE3=Do ya think
TTITLE4=Come to my World
TTITLE5=Just as long
TTITLE6=Love makes me sing
EXTD=
EXTT0=
EXTT1=
EXTT2=
EXTT3=
EXTT4=
EXTT5=
EXTT6=
PLAYORDER=
